<svg width="22" height="13" viewBox="0 0 22 13" fill="none" xmlns="http://www.w3.org/2000/svg">
<path d="M17.7949 3.67206C19.7613 5.03541 21 6.6282 21 7.30947C21 8.61095 16.8904 12.4873 11 12.4873C10.1956 12.4873 9.42437 12.415 8.69231 12.2869M15.4872 2.37496C14.1341 1.77863 12.6084 1.37988 11 1.37988C5.52055 1.37988 1 6.00798 1 7.30947C1 8.24569 3.12656 10.5143 6.51282 11.714M10.8279 9.99065C11.508 10.0551 12.2134 9.91159 12.8499 9.53404C13.8121 8.96327 14.4024 7.98478 14.5333 6.9336M8.94872 9.19107C8.64727 8.93303 8.38422 8.61694 8.1766 8.24747C7.23189 6.56628 7.79252 4.41655 9.42882 3.44591C10.8584 2.59792 12.636 2.93042 13.6923 4.14903" stroke="url(#paint0_linear_2109_234)" stroke-linecap="round"/>
<defs>
<linearGradient id="paint0_linear_2109_234" x1="11" y1="1.37988" x2="11" y2="12.4873" gradientUnits="userSpaceOnUse">
<stop stop-color="#33E4DB"/>
<stop offset="1" stop-color="#00BBD3"/>
</linearGradient>
</defs>
</svg>
