<svg width="40" height="40" viewBox="0 0 40 40" fill="none" xmlns="http://www.w3.org/2000/svg">
<g clip-path="url(#clip0_2245_3024)">
<circle cx="20" cy="20" r="20" fill="url(#paint0_linear_2245_3024)"/>
<path d="M27.0978 13.3805C25.578 11.9805 23.6227 11.1461 21.5603 11.0175C19.498 10.8888 17.4542 11.4738 15.7722 12.674C14.0902 13.8743 12.8724 15.6169 12.3234 17.609C11.7745 19.6011 11.9277 21.7214 12.7574 23.6139C13.5872 25.5063 15.0428 27.0556 16.88 28.0016C18.7171 28.9475 20.8238 29.2325 22.8462 28.8086C24.8686 28.3847 26.6836 27.2778 27.9863 25.6738C29.289 24.0698 30 22.0664 30 20L21 20" stroke="#E9F6FE" stroke-linecap="round" stroke-linejoin="round"/>
</g>
<defs>
<linearGradient id="paint0_linear_2245_3024" x1="20" y1="0" x2="20" y2="40" gradientUnits="userSpaceOnUse">
<stop stop-color="#33E4DB"/>
<stop offset="1" stop-color="#00BBD3"/>
</linearGradient>
<clipPath id="clip0_2245_3024">
<rect width="40" height="40" fill="white"/>
</clipPath>
</defs>
</svg>
